<svg height="512" viewBox="0 0 192 192" width="512" xmlns="http://www.w3.org/2000/svg"><path d="m176 56h-24.61a63.434 63.434 0 0 1 8.092 40h24.518v24h-32.61a63.938 63.938 0 0 1 -110.78 0h-32.61v-24h24.518a63.434 63.434 0 0 1 8.092-40h-24.61a16.019 16.019 0 0 0 -16 16v104a16.019 16.019 0 0 0 16 16h160a16.019 16.019 0 0 0 16-16v-104a16.019 16.019 0 0 0 -16-16zm8 112h-40v-16h40z"/><path d="m96 144a56 56 0 1 0 -56-56 56.063 56.063 0 0 0 56 56zm15-24a8 8 0 1 1 8-8 8 8 0 0 1 -8 8zm-32-64a8 8 0 1 1 -8 8 8 8 0 0 1 8-8zm43.2 1.6 9.6 12.8-64 48-9.6-12.8z"/></svg>